<?xml version="1.0" standalone="no"?>
<!DOCTYPE svg PUBLIC "-//W3C//DTD SVG 20010904//EN"
 "http://www.w3.org/TR/2001/REC-SVG-20010904/DTD/svg10.dtd">
<svg version="1.0" xmlns="http://www.w3.org/2000/svg"
 width="550.000000pt" height="453.000000pt" viewBox="0 0 550.000000 453.000000"
 preserveAspectRatio="xMidYMid meet">

<g transform="translate(0.000000,453.000000) scale(0.100000,-0.100000)"
fill="#000000" stroke="none">
<path d="M3705 3471 c-64 -47 -104 -87 -229 -229 -123 -138 -153 -162 -209
-162 -39 0 -186 20 -372 51 -111 18 -156 20 -315 16 -102 -3 -228 -13 -280
-22 -52 -9 -120 -18 -151 -22 l-56 -6 -41 44 c-22 24 -86 97 -142 162 -110
127 -165 167 -205 149 -26 -12 -25 -5 -56 -332 l-23 -235 -44 -60 c-99 -135
-154 -284 -171 -467 -9 -91 -2 -244 15 -328 34 -169 203 -357 450 -499 97 -56
167 -79 314 -101 339 -52 776 -52 1000 0 289 68 498 181 612 330 53 71 113
198 139 297 30 110 30 288 1 400 -27 107 -73 220 -124 308 l-40 70 23 155 c26
175 29 374 7 455 -17 63 -44 70 -103 26z m-1899 -189 c64 -56 134 -169 134
-216 0 -30 -47 -71 -98 -86 -57 -15 -70 -12 -87 19 -20 39 -40 206 -31 264 6
40 11 47 29 47 12 0 36 -13 53 -28z m1890 -4 c23 -72 -7 -293 -45 -331 -18
-18 -20 -18 -62 3 -61 31 -119 79 -130 106 -12 32 2 64 48 115 43 48 149 129
168 129 8 0 17 -10 21 -22z m-155 -605 c2 1 1 -2 -3 -7 -5 -6 -13 -5 -20 2
-16 16 -28 15 -28 -3 0 -8 5 -15 10 -15 6 0 11 -15 11 -32 1 -24 3 -27 6 -10
2 12 10 22 18 22 7 0 15 4 17 10 2 6 8 6 18 0 13 -9 13 -11 1 -19 -8 -5 -11
-16 -8 -25 3 -8 2 -18 -3 -21 -5 -3 -11 2 -13 10 -4 11 -4 10 -3 -2 1 -10 7
-18 14 -18 8 0 20 -9 28 -19 13 -18 14 -18 14 -2 0 9 -5 26 -11 37 -10 20 -10
20 15 4 26 -17 38 -43 14 -29 -8 4 -10 3 -5 -2 5 -5 13 -9 19 -9 6 0 13 -10
14 -23 4 -20 1 -21 -15 -12 -32 16 -33 12 -7 -17 14 -14 33 -41 43 -60 9 -18
23 -33 30 -33 6 0 13 -12 15 -27 2 -14 10 -28 18 -30 13 -4 13 -3 0 6 -8 6
-10 11 -4 11 7 0 11 7 10 16 0 9 5 19 12 21 15 6 13 -28 -3 -39 -6 -5 -4 -8 4
-8 11 0 10 -3 -3 -13 -13 -10 -16 -20 -12 -35 6 -17 16 -22 44 -23 l37 -1 -35
-13 -35 -13 27 -7 c16 -4 35 -4 44 -1 15 6 15 4 -1 -20 -18 -29 -15 -43 5 -19
15 18 30 20 30 2 0 -17 -84 -99 -93 -91 -4 4 -7 -3 -7 -15 0 -12 -4 -19 -10
-16 -5 3 -12 -7 -16 -22 -8 -35 -22 -53 -41 -53 -24 0 -39 -22 -35 -51 2 -15
-1 -35 -7 -46 -9 -14 -10 -11 -5 20 7 42 -2 46 -36 17 -18 -16 -25 -17 -32 -8
-5 10 -8 8 -8 -4 0 -25 -31 -23 -37 2 -11 42 -123 17 -123 -27 0 -11 -8 -13
-27 -9 -16 3 -45 8 -66 12 -47 8 -53 18 -22 32 25 11 34 32 15 32 -5 0 -10 -4
-10 -10 0 -5 -12 -10 -26 -10 -14 0 -23 -4 -19 -10 3 -5 1 -10 -5 -10 -7 0
-10 6 -7 14 6 14 -10 36 -26 36 -5 0 -6 -7 -3 -16 5 -14 4 -15 -9 -4 -8 7 -15
10 -15 6 0 -3 -11 4 -24 15 -20 17 -24 29 -20 56 3 24 0 35 -11 39 -8 4 -15
12 -15 20 0 17 -49 73 -50 56 0 -7 -4 -11 -9 -8 -5 3 -7 21 -4 39 5 42 -24 72
-62 64 -30 -5 -21 8 10 16 13 3 9 5 -12 6 -28 1 -33 5 -33 26 0 14 6 25 13 25
8 0 7 4 -3 10 -12 8 -9 10 12 10 31 0 47 18 27 31 -9 5 0 6 22 3 23 -4 39 -2
44 5 5 8 -1 10 -20 5 -25 -6 -27 -5 -20 17 4 13 14 36 21 51 17 33 18 46 2 30
-7 -7 -20 -12 -30 -12 -10 0 -18 -7 -18 -15 0 -8 -7 -15 -15 -15 -19 0 -11 45
13 73 8 9 12 17 8 17 -4 0 7 20 24 45 29 42 32 44 58 32 15 -6 30 -16 33 -21
4 -5 12 -5 18 -1 7 4 18 1 26 -5 16 -13 17 -12 19 22 0 12 7 23 15 26 9 3 11
-2 7 -19 -4 -17 -2 -15 8 6 14 30 35 39 48 20 5 -6 12 -3 21 9 10 13 16 15 21
8 4 -7 12 -12 19 -12 8 0 8 3 -1 12 -15 15 -15 28 -1 28 5 0 7 -4 4 -10 -3 -5
-2 -10 4 -10 5 0 13 5 16 10 12 19 34 11 30 -10 -4 -21 24 -38 69 -43 12 -1
26 -9 33 -17 17 -22 28 -4 15 25 -25 54 -4 91 29 54 9 -10 18 -18 20 -16z
m109 6 c-11 -38 -15 -43 -29 -35 -6 4 -4 17 6 36 19 39 34 38 23 -1z m-500 1
c8 -5 11 -10 5 -10 -5 0 -17 5 -25 10 -8 5 -10 10 -5 10 6 0 17 -5 25 -10z
m-1045 -10 c-3 -5 1 -10 9 -10 9 0 16 -5 16 -11 0 -5 5 -7 12 -3 7 4 8 3 4 -4
-7 -12 47 -45 57 -35 4 3 9 -1 13 -10 3 -9 12 -13 21 -10 11 4 14 2 9 -6 -9
-14 31 -50 56 -51 9 0 20 -5 23 -10 4 -7 12 -7 25 0 10 5 25 10 32 10 21 -1
-52 -30 -76 -30 -20 -1 -20 -1 -3 -11 11 -6 29 -9 41 -7 17 4 22 -1 24 -19 1
-13 -3 -23 -8 -23 -6 0 -10 4 -10 9 0 9 -30 24 -36 18 -9 -9 29 -97 42 -97 11
0 12 -5 6 -17 -5 -10 -10 -37 -11 -60 l-2 -43 38 -1 38 -1 -37 -12 c-42 -13
-59 -25 -32 -24 11 1 29 -2 42 -6 15 -5 22 -3 22 5 0 7 3 9 7 6 3 -4 -1 -15
-9 -24 -22 -26 -29 -51 -16 -59 6 -4 8 -3 5 3 -4 6 5 21 18 33 37 35 30 10
-12 -44 -23 -30 -42 -45 -51 -41 -10 4 -13 0 -9 -15 3 -11 1 -20 -4 -20 -11 0
-17 14 -22 47 -4 31 -16 40 -27 23 -14 -22 -12 -30 6 -30 14 0 14 -3 4 -15 -7
-8 -8 -15 -2 -15 19 0 20 -49 1 -66 -18 -16 -20 -16 -37 -1 -32 29 -47 13 -16
-17 24 -24 4 -19 -25 7 l-25 22 26 -36 c22 -30 25 -41 18 -70 l-8 -34 -1 33
c-1 21 -6 32 -16 32 -8 0 -15 -4 -15 -8 0 -10 -45 -32 -65 -32 -8 0 -21 16
-29 35 -16 37 -25 41 -58 24 -15 -8 -19 -8 -14 0 4 6 1 11 -7 11 -22 0 -28
-12 -15 -28 10 -11 9 -17 -5 -27 -9 -7 -17 -17 -17 -24 0 -14 -37 -14 -81 0
-19 6 -41 13 -49 15 -10 4 -8 8 10 17 13 7 25 19 28 27 4 12 2 13 -9 3 -7 -7
-21 -13 -31 -13 -10 0 -18 -6 -18 -12 0 -7 -6 -2 -13 11 -15 29 -44 43 -33 16
6 -17 5 -17 -21 0 -34 21 -54 45 -47 56 3 5 -2 9 -11 9 -8 0 -19 8 -22 18 -4
9 -18 35 -31 57 -14 22 -27 55 -28 75 -2 19 -9 47 -15 62 -9 23 -18 28 -46 28
-32 0 -34 1 -31 35 1 25 7 35 19 35 9 0 30 7 45 15 56 29 74 11 28 -28 -25
-22 -26 -57 -1 -57 6 0 8 3 5 6 -4 3 5 22 18 42 14 20 22 42 20 49 -3 7 -1 13
4 13 6 0 10 4 10 9 0 6 -12 6 -31 -1 -39 -13 -46 -5 -30 35 13 33 26 81 15 60
-3 -7 -14 -13 -25 -13 -11 0 -22 -7 -25 -15 -4 -8 -12 -15 -20 -15 -10 0 -11
6 -2 33 6 17 17 35 24 40 7 4 11 13 8 21 -3 7 11 30 31 51 19 22 35 34 35 27
0 -7 9 -12 20 -12 11 0 20 -5 20 -11 0 -6 8 -8 19 -4 11 3 22 1 26 -5 10 -15
25 -12 25 6 0 10 6 14 15 10 9 -3 15 0 15 9 0 9 -6 12 -15 9 -28 -11 -15 4 17
20 39 20 34 21 43 -11 l8 -28 6 24 c4 14 13 27 20 29 8 3 11 0 7 -6 -3 -6 -1
-14 5 -18 8 -5 9 -3 4 6 -6 10 -4 12 11 6 15 -6 17 -5 7 5 -7 7 -13 20 -13 28
0 11 4 10 15 -5 13 -17 14 -17 15 -1 0 19 25 23 36 5 5 -7 2 -8 -7 -3 -10 6
-11 5 -4 -3 13 -14 91 2 112 23 17 17 27 20 18 5z m150 -17 c-7 -30 -21 -50
-30 -41 -8 8 16 68 27 68 6 0 7 -11 3 -27z m873 -1 c2 -7 -2 -10 -12 -6 -9 3
-16 11 -16 16 0 13 23 5 28 -10z m-1398 -27 c14 -16 10 -18 -14 -9 -9 3 -16
10 -16 15 0 14 16 11 30 -6z m1967 -65 c12 0 25 -5 28 -10 4 -7 11 -7 18 -2
14 11 47 23 47 17 0 -7 -63 -35 -82 -35 -10 0 -18 5 -18 12 0 6 -3 8 -7 4 -11
-11 27 -36 53 -36 12 0 25 -7 28 -16 10 -26 -1 -28 -30 -5 -33 26 -54 27 -48
4 2 -10 0 -25 -5 -33 -9 -13 -12 -12 -25 5 -9 13 -11 22 -4 26 13 9 0 85 -17
103 -8 7 -11 16 -8 20 4 3 16 -7 27 -24 12 -17 30 -30 43 -30z m-707 -130 c0
-5 -2 -10 -4 -10 -3 0 -8 5 -11 10 -3 6 -1 10 4 10 6 0 11 -4 11 -10z m850 -5
c-7 -8 -17 -15 -22 -15 -6 0 -5 7 2 15 7 8 17 15 22 15 6 0 5 -7 -2 -15z m-37
-20 c4 -8 2 -17 -2 -20 -5 -2 -11 4 -14 15 -6 23 8 27 16 5z m-1381 -32 c-28
-30 -28 -30 -30 -7 -1 13 3 26 8 29 6 4 7 -1 3 -12 -5 -15 -2 -14 18 4 33 32
35 21 1 -14z m1424 18 c-4 -5 -1 -11 6 -13 7 -3 8 -9 3 -18 -7 -11 -10 -10
-15 6 -7 18 -4 34 6 34 3 0 3 -4 0 -9z m-866 -21 c0 -5 -7 -10 -16 -10 -8 0
-12 5 -9 10 3 6 10 10 16 10 5 0 9 -4 9 -10z m-520 -31 c0 -10 -5 -19 -11 -19
-6 0 -8 9 -4 21 5 16 4 19 -5 14 -9 -5 -11 -4 -6 4 10 16 26 4 26 -20z m-840
17 c0 -2 -7 -7 -16 -10 -8 -3 -12 -2 -9 4 6 10 25 14 25 6z m-40 -16 c0 -5 -8
-10 -17 -10 -15 0 -16 2 -3 10 19 12 20 12 20 0z m2275 -19 c-3 -6 -11 -11
-17 -11 -6 0 -6 6 2 15 14 17 26 13 15 -4z m-58 -23 c-16 -10 -21 -2 -13 19 6
15 9 15 16 3 6 -9 5 -17 -3 -22z m-1380 -25 c-3 -10 -5 -4 -5 12 0 17 2 24 5
18 2 -7 2 -21 0 -30z m38 18 c-3 -6 -11 -11 -17 -11 -6 0 -6 6 2 15 14 17 26
13 15 -4z m-59 -28 c-11 -11 -17 4 -9 23 7 18 8 18 11 1 2 -10 1 -21 -2 -24z
m1460 11 c-4 -9 -9 -15 -11 -12 -3 3 -3 13 1 22 4 9 9 15 11 12 3 -3 3 -13 -1
-22z m-886 -62 c0 -15 -2 -15 -10 -2 -13 20 -13 33 0 25 6 -3 10 -14 10 -23z
m-1372 11 c-10 -2 -26 -2 -35 0 -10 3 -2 5 17 5 19 0 27 -2 18 -5z m2162 -207
c0 -2 -8 -10 -17 -17 -16 -13 -17 -12 -4 4 13 16 21 21 21 13z m-1400 -40 c0
-3 -4 -8 -10 -11 -5 -3 -10 -1 -10 4 0 6 5 11 10 11 6 0 10 -2 10 -4z"/>
<path d="M3053 2564 c-3 -8 -1 -20 4 -25 7 -7 12 -2 15 15 6 28 -9 36 -19 10z"/>
<path d="M3395 2490 c-4 -6 -11 -8 -16 -5 -5 4 -9 -5 -9 -18 0 -27 -28 -56
-56 -58 -10 -1 -1 -5 21 -9 l40 -7 -35 -2 c-19 -1 -57 -8 -85 -16 l-50 -14 75
2 75 2 3 -41 3 -40 -79 1 c-59 2 -79 -1 -79 -11 0 -7 4 -11 9 -8 9 6 12 -16 9
-60 -2 -20 1 -26 10 -21 8 5 10 4 5 -4 -8 -13 61 -88 71 -77 3 3 11 2 17 -2 6
-5 30 -15 54 -22 37 -12 45 -12 52 0 5 8 6 18 3 24 -3 5 -1 6 6 2 6 -4 8 -13
4 -19 -4 -8 -1 -7 9 1 13 10 17 10 22 0 3 -7 4 -3 2 9 -3 19 0 21 31 18 28 -2
39 3 63 34 37 44 38 53 4 41 -16 -7 -23 -7 -19 0 3 6 -4 10 -17 10 -18 0 -20
-2 -8 -10 8 -5 11 -10 5 -10 -18 0 -31 15 -33 35 0 11 -2 29 -3 40 -3 36 1 46
24 55 16 7 11 8 -20 3 -29 -4 -43 -2 -43 6 0 6 10 11 23 12 21 1 21 1 -3 8
-24 7 -24 7 -5 19 20 11 20 12 -2 18 -25 7 -27 12 -13 34 8 12 11 13 19 1 6
-9 11 -10 15 -2 4 6 2 11 -4 11 -8 0 -8 6 0 20 15 28 5 40 -36 40 -19 0 -34 5
-34 10 0 13 -17 13 -25 0z m70 -50 c-3 -5 -12 -10 -18 -10 -7 0 -6 4 3 10 19
12 23 12 15 0z m10 -160 c-3 -5 -2 -10 3 -10 14 0 10 -29 -5 -34 -10 -4 -12 2
-9 22 5 34 5 32 12 32 3 0 2 -4 -1 -10z m-124 -31 c6 -12 7 -19 1 -15 -10 6
-26 -23 -17 -32 3 -3 5 0 5 6 0 7 5 12 10 12 12 0 13 -47 1 -54 -5 -3 -12 1
-15 10 -3 9 -11 12 -18 8 -7 -4 -10 -4 -6 1 13 14 -11 44 -40 48 -15 2 -8 4
15 3 23 -1 41 1 41 4 -2 34 7 38 23 9z m-66 -40 c10 -15 -1 -23 -20 -15 -9 3
-13 10 -10 16 8 13 22 13 30 -1z m209 -21 c16 -33 16 -33 -3 -10 -21 24 -37
30 -25 10 5 -10 3 -10 -7 0 -12 11 -12 14 1 22 8 5 16 10 17 10 1 0 9 -15 17
-32z m-197 -24 c-3 -3 -12 -4 -19 -1 -8 3 -5 6 6 6 11 1 17 -2 13 -5z m176
-14 c-3 -11 -9 -20 -15 -20 -5 0 -4 9 2 20 6 11 12 20 14 20 2 0 2 -9 -1 -20z
m-102 -5 c0 -5 2 -17 4 -25 4 -25 -42 -24 -55 0 -6 11 -8 24 -6 29 8 12 56 8
57 -4z m-71 -3 c0 -5 -7 -9 -15 -9 -8 0 -15 4 -15 9 0 4 7 8 15 8 8 0 15 -4
15 -8z m235 -2 c-26 -11 -45 -12 -45 -2 0 4 15 8 33 9 26 1 28 0 12 -7z"/>
<path d="M3322 2474 c-12 -8 -20 -19 -17 -24 3 -5 -16 -20 -42 -34 -26 -14
-41 -25 -33 -26 17 0 89 36 105 52 7 8 6 9 -2 4 -7 -4 -13 -3 -13 2 0 5 9 12
20 15 11 3 20 10 20 16 0 15 -12 14 -38 -5z"/>
<path d="M3560 2410 c0 -5 4 -10 9 -10 6 0 6 -12 1 -30 -8 -28 -7 -30 18 -29
18 0 22 3 12 7 -9 4 -16 17 -17 30 -1 38 -3 42 -13 42 -5 0 -10 -4 -10 -10z"/>
<path d="M3515 2370 c-8 -13 15 -13 35 0 12 8 11 10 -7 10 -12 0 -25 -4 -28
-10z"/>
<path d="M3037 2335 c-21 -15 -20 -46 2 -53 9 -3 11 0 7 7 -4 7 -2 18 4 26 18
21 8 36 -13 20z"/>
<path d="M3204 2338 c-3 -5 3 -8 13 -8 15 0 16 -2 3 -10 -21 -14 5 -13 31 0
11 6 25 7 32 3 6 -4 22 -8 34 -8 21 -1 21 0 6 17 -12 13 -28 17 -65 15 -27 -1
-52 -5 -54 -9z"/>
<path d="M3558 2323 c6 -2 18 -2 25 0 6 3 1 5 -13 5 -14 0 -19 -2 -12 -5z"/>
<path d="M3526 2287 c-27 -12 -28 -14 -13 -29 12 -12 13 -18 4 -21 -7 -2 -4
-8 10 -15 25 -14 53 -6 53 14 0 8 9 14 20 14 28 0 25 25 -5 38 -31 14 -32 14
-69 -1z m30 -64 c-10 -10 -19 5 -10 18 6 11 8 11 12 0 2 -7 1 -15 -2 -18z"/>
<path d="M3590 2226 c0 -9 5 -16 10 -16 6 0 10 4 10 9 0 6 -4 13 -10 16 -5 3
-10 -1 -10 -9z"/>
<path d="M3820 2185 c-7 -8 -17 -12 -23 -8 -6 4 -7 1 -3 -6 6 -9 13 -8 27 5
10 9 19 19 19 21 0 7 -8 2 -20 -12z"/>
<path d="M3773 2155 c0 -8 4 -12 9 -9 5 3 6 10 3 15 -9 13 -12 11 -12 -6z"/>
<path d="M3160 2040 c0 -5 5 -10 11 -10 5 0 7 5 4 10 -3 6 -8 10 -11 10 -2 0
-4 -4 -4 -10z"/>
<path d="M3373 1953 c9 -2 23 -2 30 0 6 3 -1 5 -18 5 -16 0 -22 -2 -12 -5z"/>
<path d="M3350 1929 c0 -5 5 -7 10 -4 6 3 10 8 10 11 0 2 -4 4 -10 4 -5 0 -10
-5 -10 -11z"/>
<path d="M2098 2643 c7 -3 16 -2 19 1 4 3 -2 6 -13 5 -11 0 -14 -3 -6 -6z"/>
<path d="M1656 2534 c-18 -17 -21 -28 -6 -19 6 3 10 1 10 -6 0 -18 10 -5 15
20 5 25 1 26 -19 5z"/>
<path d="M1979 2493 c-9 -2 -19 -17 -23 -34 -4 -21 -15 -34 -38 -44 l-33 -14
35 -2 c34 -2 33 -2 -10 -10 -25 -4 -61 -12 -80 -18 -29 -8 -22 -9 36 -4 39 3
74 1 77 -3 2 -5 2 -25 -2 -44 l-6 -35 -67 0 c-38 -1 -68 2 -68 6 0 15 52 40
68 33 9 -4 28 -9 41 -10 22 -3 22 -2 6 16 -13 15 -29 18 -71 17 -30 -1 -54 -5
-54 -9 0 -5 7 -8 16 -8 14 0 14 -1 0 -16 -18 -17 -16 -44 3 -67 9 -11 9 -21 3
-34 -12 -22 3 -57 20 -47 6 4 8 3 5 -3 -7 -10 47 -64 60 -61 5 0 17 -2 28 -6
11 -4 33 -13 48 -18 15 -6 29 -9 31 -7 2 2 8 13 14 24 9 16 11 17 12 3 0 -11
6 -15 21 -11 11 3 18 11 15 19 -3 9 3 12 23 9 30 -3 60 16 84 55 l16 25 -42 1
c-34 2 -37 0 -17 -6 21 -7 21 -8 5 -9 -27 -1 -49 14 -41 28 4 6 2 20 -5 32 -9
17 -8 20 3 16 7 -2 12 -9 11 -15 -4 -16 32 -33 51 -26 9 3 16 12 16 20 0 13
12 18 33 15 21 -3 3 28 -23 39 -25 10 -35 9 -67 -6 -23 -12 -37 -25 -35 -35 1
-9 -5 -16 -13 -16 -16 0 -17 39 0 54 4 4 5 2 1 -4 -4 -7 -2 -13 4 -13 6 0 13
7 17 16 3 9 15 20 27 24 14 6 8 7 -21 3 -29 -4 -43 -2 -43 6 0 6 10 11 23 12
21 1 21 1 -3 8 -24 7 -24 7 -5 19 20 11 20 12 -2 18 -25 7 -27 12 -13 34 8 12
11 13 19 1 6 -9 11 -10 15 -2 4 6 2 11 -4 11 -7 0 -7 6 1 22 10 18 8 24 -7 35
-15 11 -21 10 -38 -4 -12 -10 -18 -14 -14 -9 6 7 -15 38 -24 35 -2 -1 -10 -3
-19 -6z m-40 -246 c-1 -7 1 -20 6 -30 4 -10 3 -29 -4 -44 -10 -23 -10 -25 6
-19 10 4 14 4 11 1 -4 -4 -3 -17 2 -29 7 -19 5 -22 -17 -21 -33 0 -52 34 -28
51 18 13 13 35 -8 30 -7 -1 -9 -1 -5 1 16 9 -13 42 -40 46 -15 2 -8 4 15 3 23
-1 41 1 41 4 -1 20 4 30 12 25 6 -4 10 -12 9 -18z m207 -24 c-10 -10 -19 5
-10 18 6 11 8 11 12 0 2 -7 1 -15 -2 -18z m-275 -18 c-1 -15 -24 -12 -29 3 -3
9 2 13 12 10 10 -1 17 -7 17 -13z m209 -13 c0 -15 -2 -15 -10 -2 -13 20 -13
33 0 25 6 -3 10 -14 10 -23z m-26 2 c3 -8 2 -12 -4 -9 -6 3 -10 10 -10 16 0
14 7 11 14 -7z m111 -24 c-3 -5 -12 -10 -18 -10 -7 0 -6 4 3 10 19 12 23 12
15 0z m-282 -7 c-7 -2 -19 -2 -25 0 -7 3 -2 5 12 5 14 0 19 -2 13 -5z m173
-29 c-4 -9 -9 -15 -11 -12 -3 3 -3 13 1 22 4 9 9 15 11 12 3 -3 3 -13 -1 -22z
m-172 8 c3 -5 -1 -9 -9 -9 -8 0 -15 4 -15 9 0 4 4 8 9 8 6 0 12 -4 15 -8z
m233 -4 c-18 -6 -32 -7 -38 -1 -5 5 6 9 28 10 37 0 38 0 10 -9z"/>
<path d="M1905 2474 c-9 -9 -14 -18 -12 -20 7 -8 57 15 57 26 0 15 -27 12 -45
-6z"/>
<path d="M2095 2450 c-3 -5 -1 -10 4 -10 6 0 11 5 11 10 0 6 -2 10 -4 10 -3 0
-8 -4 -11 -10z"/>
<path d="M1865 2421 c-33 -16 -53 -30 -45 -30 15 -1 87 33 105 50 15 15 4 11
-60 -20z"/>
<path d="M2150 2412 c0 -12 19 -26 26 -19 2 2 -2 10 -11 17 -9 8 -15 8 -15 2z"/>
<path d="M2105 2371 c-10 -17 12 -21 25 -6 10 12 10 15 -3 15 -9 0 -18 -4 -22
-9z"/>
<path d="M2158 2363 c-5 -20 -2 -23 20 -22 16 1 20 3 10 6 -9 2 -18 12 -20 21
-3 13 -5 12 -10 -5z"/>
<path d="M2160 2320 c34 -11 60 -11 35 0 -11 5 -29 8 -40 8 -16 0 -15 -2 5 -8z"/>
<path d="M2180 2226 c0 -9 5 -16 10 -16 6 0 10 4 10 9 0 6 -4 13 -10 16 -5 3
-10 -1 -10 -9z"/>
<path d="M2256 2065 c-3 -9 0 -15 8 -15 8 0 16 -6 19 -12 2 -7 7 -10 11 -6 8
6 -14 48 -25 48 -4 0 -9 -7 -13 -15z"/>
<path d="M2200 1949 c0 -5 5 -7 10 -4 6 3 10 8 10 11 0 2 -4 4 -10 4 -5 0 -10
-5 -10 -11z"/>
<path d="M1963 1935 c0 -8 7 -15 14 -15 8 0 12 4 9 9 -4 5 0 12 6 14 7 3 4 6
-8 6 -12 1 -21 -5 -21 -14z"/>
<path d="M1950 1900 c0 -5 5 -10 10 -10 6 0 10 5 10 10 0 6 -4 10 -10 10 -5 0
-10 -4 -10 -10z"/>
</g>
</svg>
